<svg width="18" height="18" viewBox="0 0 23 20" fill="white" xmlns="http://www.w3.org/2000/svg"><path d="M11.5 0C5.14762 0 0 3.8515 0 8.60522C0 11.6979 2.18115 14.4112 5.45522 15.9266C5.2152 16.7759 4.58369 19.006 4.45785 19.4825C4.30172 20.0737 4.68622 20.0671 4.94022 19.9083C5.1383 19.7825 8.09078 17.881 9.36545 17.0626C10.0575 17.1597 10.7706 17.2104 11.5 17.2104C17.8501 17.2104 23 13.3589 23 8.60522C22.9977 3.8515 17.8501 0 11.5 0ZM5.89098 10.8244C5.89331 11.3472 4.66292 11.3405 4.66059 10.8177C4.66758 10.1008 4.66059 7.02359 4.66059 7.02359H3.4768C2.78237 7.02359 2.78004 5.94932 3.47447 5.94932C3.47447 5.94932 6.24519 5.97138 7.07477 5.97138C7.81115 5.97138 7.80882 7.06771 7.07477 7.06771C6.29412 7.06771 5.89797 7.0655 5.89797 7.0655L5.89098 10.8244ZM10.4164 10.9545C10.1298 10.2354 10.2044 10.2045 10.2044 10.2045H8.03951L7.80182 10.9876C7.55015 11.5369 6.45957 11.0891 6.71358 10.5398C7.06312 9.77876 8.11408 6.91109 8.40537 6.30447C8.52188 6.06402 8.7922 5.96917 9.0695 5.96917C9.40507 5.96917 9.75228 6.11035 9.84782 6.30447C10.0575 6.728 11.2087 9.7192 11.5396 10.5508C11.7726 11.1332 10.6494 11.5369 10.4164 10.9545ZM14.8067 11.2192C14.2497 11.2192 12.996 11.2258 12.4298 11.2258C11.8635 11.2258 11.9591 10.6016 11.9591 10.6016C11.9591 10.6016 11.9567 7.46036 11.9544 6.48535C11.9544 6.14344 12.2737 5.97138 12.5952 5.97138C12.9145 5.97138 13.2337 6.14123 13.2361 6.48314C13.2384 7.18903 13.2337 10.0942 13.2337 10.0942C13.2337 10.0942 14.2497 10.1008 14.8044 10.1008C15.3613 10.0986 15.3636 11.2192 14.8067 11.2192ZM18.6307 11.131L17.0694 9.11479L16.7129 9.38611C16.7129 9.38611 16.7129 10.381 16.7129 10.906C16.7129 11.3582 15.4988 11.3582 15.4988 10.906C15.4988 10.6192 15.5244 6.75447 15.5128 6.32873C15.5058 6.0927 15.825 5.97138 16.1373 5.97138C16.4286 5.97138 16.7152 6.07726 16.7199 6.29785C16.7362 6.878 16.7199 7.9258 16.7199 7.9258C16.7199 7.9258 18.4816 6.25594 18.7332 6.01991C18.9919 5.77505 19.7935 6.5405 19.5349 6.78315C19.0921 7.20006 17.9666 8.35154 17.9666 8.35154L19.6234 10.4185C19.938 10.8133 18.9453 11.5258 18.6307 11.131Z" fill="white"></path><path d="M8.42871 9.17318H9.80126L9.14178 7.21875L8.42871 9.17318Z" fill="white"></path></svg>