<svg width="16" height="16" viewBox="0 0 22 18" fill="white" xmlns="http://www.w3.org/2000/svg"><path d="M4.65387 6.66406C4.40836 6.66406 4.19811 6.75315 4.02449 6.92863C3.84951 7.10546 3.7627 7.32008 3.7627 7.57115C3.7627 7.82222 3.84951 8.03684 4.02449 8.21367C4.19947 8.3905 4.40836 8.47959 4.65387 8.47959C4.90346 8.47959 5.11642 8.3905 5.29411 8.21367C5.4718 8.03684 5.55997 7.82357 5.55997 7.57115C5.55997 7.32008 5.4718 7.10546 5.29411 6.92863C5.11642 6.7518 4.90346 6.66406 4.65387 6.66406Z" fill="white"></path><path d="M12.2672 6.65625C12.0216 6.65625 11.8114 6.74399 11.6378 6.92082C11.4628 7.09764 11.376 7.31227 11.376 7.56334C11.376 7.81576 11.4641 8.02903 11.6378 8.20586C11.8114 8.38268 12.0216 8.47042 12.2672 8.47042C12.5167 8.47042 12.7297 8.38133 12.9074 8.20586C13.0851 8.02903 13.1733 7.81441 13.1733 7.56334C13.1733 7.31227 13.0851 7.09764 12.9074 6.92082C12.7297 6.74399 12.5167 6.65625 12.2672 6.65625Z" fill="white"></path><path d="M17.3447 6.66406C17.0992 6.66406 16.8889 6.75315 16.7139 6.92863C16.5403 7.10546 16.4521 7.32008 16.4521 7.57115C16.4521 7.82222 16.5403 8.03684 16.7139 8.21367C16.8889 8.3905 17.0992 8.47959 17.3447 8.47959C17.5929 8.47959 17.8072 8.3905 17.9849 8.21367C18.1626 8.03684 18.2508 7.82357 18.2508 7.57115C18.2508 7.32008 18.1613 7.10546 17.9849 6.92863C17.8072 6.7518 17.5943 6.66406 17.3447 6.66406Z" fill="white"></path><path d="M19.6018 0H2.39817C1.07972 0 0 1.07447 0 2.3865V12.0688C0 13.3809 1.07972 14.4553 2.39817 14.4553H9.15321C9.15321 14.4553 10.4581 18 10.9329 18C11.409 18 12.8197 14.4553 12.8197 14.4553H19.6018C20.9216 14.4553 22 13.3809 22 12.0688V2.3865C22.0014 1.07447 20.9216 0 19.6018 0ZM6.39423 8.93858C6.05376 9.32058 5.53154 9.48121 4.96183 9.48121C4.44775 9.48121 4.07201 9.32733 3.79394 9.11676H3.77767V9.38943H2.48634V3.78358H3.77767V5.92711H3.79394C4.1439 5.63015 4.6078 5.52891 5.15445 5.51136C5.62242 5.49516 6.10938 5.78673 6.40101 6.12283C6.69129 6.45759 6.90425 6.98268 6.90425 7.5631C6.90425 8.19483 6.73605 8.55658 6.39423 8.93858ZM9.16678 9.43127H7.84968C7.84968 9.43127 7.84968 6.48594 7.84968 5.9622C7.84968 5.16175 7.21351 5.05647 7.21351 5.05647V3.66749C7.21351 3.66749 9.05962 3.77953 9.16678 6.0054C9.16678 6.64792 9.16678 9.43127 9.16678 9.43127ZM14.3361 8.3676C14.2249 8.61867 14.0649 8.84274 13.8519 9.03982C13.643 9.2342 13.4029 9.38403 13.1303 9.48796C12.859 9.5919 12.5714 9.64454 12.2689 9.64454C11.9719 9.64454 11.6897 9.5919 11.4212 9.48796C11.1512 9.38403 10.9112 9.2342 10.6995 9.03982C10.4812 8.83465 10.317 8.60787 10.2045 8.3595C10.0932 8.11249 10.0376 7.84792 10.0376 7.56985C10.0376 7.29179 10.0932 7.02722 10.2058 6.77885C10.3184 6.53048 10.4825 6.30371 10.7009 6.09854C10.9139 5.90281 11.154 5.75433 11.4225 5.65039C11.6911 5.54646 11.9732 5.49516 12.2703 5.49516C12.5728 5.49516 12.859 5.54646 13.1316 5.65039C13.4029 5.75433 13.643 5.90416 13.8533 6.09854C14.0662 6.29561 14.2263 6.51968 14.3375 6.77075C14.4474 7.02182 14.503 7.28774 14.503 7.56985C14.5003 7.85197 14.446 8.11789 14.3361 8.3676ZM19.515 8.92508C19.515 9.90911 19.3278 10.5098 18.8856 10.9269C18.3607 11.4223 17.6133 11.4574 16.9839 11.3683V10.3505C17.5088 10.4031 18.2318 10.0589 18.2305 9.38133V9.12081H18.2142C17.9198 9.52576 17.4899 9.67289 16.9174 9.67289C16.3871 9.67289 15.9272 9.47851 15.6166 9.11541C15.3046 8.75231 15.15 8.26637 15.15 7.65624C15.15 6.97323 15.3236 6.42925 15.6709 6.02835C16.0168 5.6261 16.5119 5.43847 17.0775 5.43847C17.5848 5.43847 17.9036 5.55996 18.2155 5.84342H18.2318V5.53431H19.515V8.92508Z" fill="white"></path></svg>