<svg width="16" height="16" viewBox="0 0 24 23" fill="white" xmlns="http://www.w3.org/2000/svg"><path d="M5.27188 5.83705H11.2585C11.2726 5.83705 11.2895 5.83705 11.3035 5.83422C11.3486 5.82855 16.018 5.06708 16.0968 0.302892C16.0996 0.2208 16.0686 0.144369 16.0124 0.0877539C15.9532 0.0311385 15.8773 0 15.7984 0L10.1327 0.00283077C10.0848 0.00849231 5.37602 0.73883 4.97635 5.51434C4.97072 5.59926 4.99605 5.68135 5.05516 5.7408C5.11145 5.80308 5.19026 5.83705 5.27188 5.83705Z" fill="white"></path><path d="M9.13053 23.0009C15.8884 23.0009 17.6475 17.8291 18.1034 15.2984H20.4649C22.4126 15.2984 24 13.7047 24 11.7429C24 9.78405 22.4154 8.1875 20.4649 8.1875H17.9683H15.0102H0.295532C0.132286 8.19033 0 8.32338 0 8.48756V13.9311C0 13.934 0.182948 23.0009 9.13053 23.0009ZM20.3833 9.99636C21.329 9.99636 22.0973 10.7692 22.0973 11.7231C22.0973 12.6771 21.329 13.4471 20.3833 13.4471C19.4347 13.4471 18.6664 12.6743 18.6664 11.7231C18.6664 10.7692 19.4347 9.99636 20.3833 9.99636Z" fill="white"></path></svg>