<?xml version="1.0" standalone="no"?>
<!DOCTYPE svg PUBLIC "-//W3C//DTD SVG 20010904//EN"
 "http://www.w3.org/TR/2001/REC-SVG-20010904/DTD/svg10.dtd">
<svg version="1.0" xmlns="http://www.w3.org/2000/svg"
 width="1080.000000pt" height="1080.000000pt" viewBox="0 0 1080.000000 1080.000000"
 preserveAspectRatio="xMidYMid meet">

<g transform="translate(0.000000,1080.000000) scale(0.100000,-0.100000)"
fill="#000000" stroke="none">
<path d="M5234 8368 c-15 -22 -17 -225 -4 -258 8 -19 28 -37 58 -51 40 -20 50
-21 88 -11 33 9 50 9 69 0 21 -9 28 -8 45 7 18 16 20 31 20 141 0 151 -7 174
-54 174 -42 0 -46 -9 -46 -111 0 -44 -5 -89 -10 -100 -12 -22 -62 -26 -78 -6
-6 7 -13 60 -14 118 l-3 104 -32 3 c-18 2 -35 -2 -39 -10z"/>
<path d="M5621 8352 c-10 -19 -51 -238 -51 -275 0 -26 16 -37 55 -37 26 0 38
27 50 110 13 93 28 103 98 69 38 -19 48 -20 61 -9 38 31 -1 115 -58 125 -19 4
-43 4 -55 0 -14 -4 -23 0 -31 15 -13 25 -56 27 -69 2z"/>
<path d="M4911 8338 c-53 -26 -80 -79 -81 -156 0 -107 51 -162 150 -162 65 0
110 23 141 72 16 27 19 46 17 105 -3 64 -7 76 -33 104 -58 61 -121 73 -194 37z
m118 -104 c27 -35 27 -78 -1 -104 -46 -43 -101 -17 -101 49 0 75 61 108 102
55z"/>
<path d="M4626 8278 c-3 -13 -10 -63 -16 -113 -13 -107 -18 -125 -33 -125 -7
0 -39 42 -72 93 -57 87 -62 92 -95 92 -32 0 -35 -3 -38 -30 -2 -23 10 -51 53
-114 30 -45 74 -105 97 -132 64 -76 51 -139 -34 -156 -34 -7 -41 -16 -33 -43
14 -44 117 -67 150 -33 9 9 21 26 25 39 16 40 58 256 75 386 20 144 16 158
-41 158 -27 0 -35 -5 -38 -22z"/>
<path d="M6244 8228 c-25 -49 -64 -168 -64 -197 0 -64 68 -121 144 -121 21 0
36 -6 40 -15 7 -19 50 -20 65 -2 14 17 81 238 81 266 0 27 -44 50 -67 35 -9
-5 -28 -44 -43 -86 -38 -108 -59 -127 -102 -94 -26 19 -22 57 13 141 35 84 31
105 -22 105 -22 0 -32 -7 -45 -32z"/>
<path d="M6612 8128 c-15 -19 -79 -151 -103 -209 -19 -49 -19 -53 -3 -70 35
-39 59 -25 103 61 23 43 46 82 52 86 14 8 66 -14 73 -32 3 -8 -13 -52 -35 -96
l-41 -82 22 -18 c46 -37 74 -13 121 104 24 60 30 88 26 116 -8 47 -55 92 -97
92 -20 0 -33 7 -41 23 -20 38 -56 50 -77 25z"/>
<path d="M7040 8070 c-11 -11 -20 -29 -20 -39 0 -40 79 -68 108 -39 18 18 14
63 -6 81 -25 23 -58 21 -82 -3z"/>
<path d="M3830 8008 c-85 -43 -113 -131 -71 -223 52 -116 182 -137 273 -45 40
40 47 65 24 95 -13 18 -16 18 -67 -18 -30 -21 -66 -37 -82 -37 -36 0 -34 14 3
30 16 7 50 25 75 41 53 34 59 65 22 120 -42 63 -101 75 -177 37z m89 -77 c11
-7 4 -15 -29 -36 -23 -14 -44 -24 -47 -21 -10 10 10 48 30 56 28 11 29 11 46
1z"/>
<path d="M6983 7938 c-35 -39 -133 -213 -133 -236 0 -28 45 -49 67 -30 15 12
111 171 134 220 10 24 10 31 -6 48 -23 26 -37 25 -62 -2z"/>
<path d="M3403 7930 c-29 -12 -30 -51 -4 -100 l19 -35 -30 -25 c-28 -23 -29
-27 -17 -53 13 -29 35 -32 80 -13 12 5 27 -12 62 -73 52 -89 67 -101 127 -101
35 0 48 6 77 35 29 29 34 40 31 72 -4 49 -29 55 -69 17 -36 -35 -50 -28 -93
40 l-29 48 43 43 c42 43 43 44 26 69 -20 31 -32 32 -71 6 -16 -11 -34 -20 -40
-20 -5 0 -22 23 -37 50 -29 51 -37 55 -75 40z"/>
<path d="M7187 7833 c-8 -15 -28 -83 -46 -151 -30 -115 -31 -125 -16 -148 28
-44 55 -34 232 79 85 54 103 80 77 108 -25 28 -43 24 -120 -26 -38 -24 -71
-40 -73 -34 -1 6 5 44 15 86 20 84 14 106 -29 111 -20 3 -29 -3 -40 -25z"/>
<path d="M3260 7636 c-14 -7 -41 -21 -61 -30 -108 -52 -117 -197 -20 -290 61
-58 156 -40 203 40 17 28 25 34 43 30 15 -4 28 1 41 15 15 17 16 23 5 41 -32
52 -163 208 -174 208 -7 0 -23 -6 -37 -14z m40 -138 c24 -40 25 -66 3 -90 -18
-20 -63 -24 -81 -6 -17 17 -15 79 4 106 22 32 51 28 74 -10z"/>
<path d="M7496 7588 c-22 -13 -53 -40 -70 -61 -27 -33 -31 -47 -31 -96 0 -48
5 -64 28 -94 51 -67 145 -98 180 -59 27 30 20 41 -39 69 -51 24 -87 64 -72 79
3 3 36 -15 73 -40 36 -25 74 -46 84 -46 35 0 81 68 81 120 0 109 -138 184
-234 128z m130 -103 c23 -36 9 -44 -34 -19 -47 28 -52 44 -13 44 22 0 35 -7
47 -25z"/>
<path d="M2895 7386 c-37 -16 -82 -68 -91 -102 -17 -68 26 -166 89 -204 46
-28 124 -27 168 3 69 46 99 125 62 163 -16 16 -19 14 -58 -29 -37 -43 -91 -75
-104 -62 -3 3 23 31 57 61 67 60 77 90 44 129 -46 54 -104 69 -167 41z m75
-88 c0 -14 -50 -68 -62 -68 -16 0 -8 40 12 60 22 22 50 27 50 8z"/>
<path d="M7748 7313 c-108 -105 -124 -131 -102 -162 24 -34 52 -25 118 39 35
33 69 60 78 60 18 0 43 -27 52 -58 12 -36 42 -46 66 -22 17 17 20 31 18 68 -3
42 -7 50 -40 71 -26 17 -38 32 -38 47 0 22 -25 44 -51 44 -6 0 -52 -39 -101
-87z"/>
<path d="M6660 7373 c-8 -4 -557 -337 -1220 -741 -663 -404 -1230 -747 -1260
-761 -55 -26 -56 -26 -380 -31 -276 -4 -331 -8 -362 -22 -62 -28 -103 -65
-134 -120 l-29 -53 -3 -456 c-3 -442 -2 -458 18 -512 25 -65 99 -140 158 -158
20 -6 100 -14 177 -18 110 -7 151 -13 190 -30 72 -32 143 -90 173 -141 l27
-45 5 -397 c5 -383 6 -398 26 -425 11 -15 40 -35 62 -43 37 -13 47 -13 84 0
22 8 51 28 62 43 20 27 21 42 26 430 5 383 6 404 26 448 26 55 77 108 130 135
38 18 72 19 949 22 667 2 921 0 950 -9 67 -19 131 -73 162 -137 l28 -57 5
-400 c5 -434 5 -430 63 -465 57 -35 136 -18 172 36 19 27 20 53 25 424 5 356
7 398 23 428 30 55 91 108 164 143 63 30 78 33 208 40 77 4 156 12 176 18 47
15 124 82 152 135 22 40 22 49 25 494 2 294 -1 466 -8 491 -18 69 -71 133
-135 166 l-59 30 -375 5 c-357 5 -378 6 -421 26 -25 12 -59 37 -76 55 -18 19
-108 185 -204 378 -162 325 -172 346 -166 386 4 26 16 51 32 66 14 13 169 107
346 209 202 116 329 196 342 213 26 35 27 104 2 142 -33 51 -105 77 -156 58z
m-820 -869 c22 -19 72 -108 171 -305 76 -154 139 -286 139 -296 0 -9 -10 -27
-22 -40 l-21 -23 -653 0 c-595 0 -654 1 -662 16 -5 9 -7 24 -5 33 3 9 212 156
466 328 441 298 464 312 509 313 36 0 54 -6 78 -26z m1374 -955 c50 -39 56
-65 56 -234 l0 -155 -89 0 -89 0 -12 -47 c-16 -68 -24 -73 -95 -73 -68 0 -76
7 -90 84 l-7 36 -98 0 -97 0 -7 -41 c-12 -73 -19 -79 -91 -79 -61 0 -65 1 -80
30 -8 16 -15 43 -15 60 l0 30 -99 0 -99 0 -12 -47 c-16 -68 -24 -73 -95 -73
l-63 0 -16 40 c-9 22 -16 49 -16 60 0 19 -7 20 -99 20 l-99 0 -7 -36 c-14 -77
-22 -84 -90 -84 -71 0 -79 5 -95 73 l-12 47 -99 0 -99 0 0 -30 c0 -17 -7 -44
-15 -60 -15 -29 -19 -30 -80 -30 -73 0 -80 7 -93 83 -4 23 -11 41 -15 40 -4
-2 -47 -3 -96 -3 l-89 0 -7 -36 c-14 -77 -22 -84 -90 -84 -71 0 -79 5 -95 73
l-12 47 -99 0 -99 0 0 -25 c0 -14 -7 -41 -14 -60 -15 -35 -15 -35 -81 -35 -66
0 -66 0 -81 35 -7 19 -14 47 -14 62 l0 28 -99 -3 -99 -3 -12 -47 c-16 -67 -24
-72 -95 -72 l-63 0 -16 40 c-9 22 -16 49 -16 59 0 17 -9 20 -72 23 -111 5
-128 1 -128 -28 0 -14 -7 -40 -14 -59 -15 -35 -15 -35 -80 -35 -62 0 -66 1
-81 30 -8 16 -15 43 -15 60 l0 30 -95 0 -95 0 0 159 c0 148 1 160 23 192 12
18 34 39 47 46 20 10 400 13 1801 13 l1776 0 27 -21z"/>
<path d="M8074 7160 c-29 -12 -64 -58 -64 -86 0 -12 12 -50 26 -84 15 -33 25
-63 22 -65 -13 -13 -37 10 -59 58 -26 57 -49 69 -80 41 -26 -24 -24 -50 11
-112 37 -64 96 -99 152 -88 73 13 89 72 49 174 -25 63 -25 62 -7 62 8 0 27
-19 43 -42 48 -72 94 -56 79 26 -7 36 -66 99 -109 115 -33 13 -35 13 -63 1z"/>
<path d="M2628 7101 c-26 -30 -40 -40 -53 -35 -20 8 -45 -18 -45 -46 0 -18
165 -219 187 -227 23 -9 63 14 63 36 0 11 -21 46 -47 78 -25 32 -50 63 -55 69
-15 20 4 46 49 65 24 10 46 26 50 35 9 24 -28 55 -74 61 -37 5 -42 2 -75 -36z"/>
<path d="M2405 6906 c-39 -17 -80 -65 -95 -112 -23 -70 41 -177 126 -210 59
-23 109 -8 157 45 57 64 67 134 23 170 -14 12 -19 11 -36 -4 -11 -10 -20 -28
-20 -40 0 -12 -9 -34 -21 -49 -54 -68 -155 4 -123 89 4 9 24 25 45 36 48 24
55 64 13 79 -31 12 -32 12 -69 -4z"/>
<path d="M8275 6884 c-69 -38 -115 -99 -115 -154 0 -95 109 -197 178 -167 34
15 27 36 -28 87 -33 31 -50 54 -50 70 0 22 7 18 63 -38 38 -38 71 -62 84 -62
12 0 38 16 58 35 32 32 35 41 35 91 0 51 -3 58 -43 101 -40 42 -49 46 -98 50
-37 2 -63 -2 -84 -13z m119 -100 c16 -16 22 -54 9 -54 -9 1 -73 57 -73 65 0
12 50 4 64 -11z"/>
<path d="M3102 3071 c-10 -6 -16 -40 -19 -108 -4 -86 -3 -102 13 -117 45 -45
184 49 184 125 0 17 -55 71 -91 89 -41 22 -66 25 -87 11z"/>
<path d="M7388 3065 c-33 -18 -50 -67 -49 -145 0 -110 49 -147 179 -137 97 8
127 14 177 36 59 27 81 55 67 86 -14 30 -20 30 -150 4 -125 -26 -136 -23 -127
31 8 48 -9 105 -38 125 -26 18 -25 18 -59 0z"/>
<path d="M4040 3020 c-24 -24 -26 -72 -5 -90 19 -16 20 -89 3 -223 -13 -109
-6 -129 47 -129 50 0 64 27 82 163 20 154 10 240 -32 277 -32 27 -69 28 -95 2z"/>
<path d="M5350 3015 c-6 -8 -9 -22 -6 -33 4 -12 -23 -62 -85 -157 -50 -76 -93
-144 -96 -151 -5 -13 23 -44 40 -44 39 1 62 19 113 94 32 44 58 82 59 84 1 1
43 -18 92 -44 88 -45 91 -45 121 -30 41 21 51 54 24 76 -11 9 -58 32 -105 50
l-85 33 14 33 c24 57 -1 104 -54 104 -11 0 -25 -7 -32 -15z"/>
<path d="M5850 3006 c-79 -18 -120 -42 -120 -69 0 -30 11 -44 43 -56 l27 -10
-24 -36 c-26 -38 -46 -113 -46 -174 0 -53 31 -91 75 -91 27 0 33 -3 29 -15 -9
-22 23 -65 46 -65 32 0 173 40 197 56 36 23 56 60 49 90 -6 24 -10 26 -45 21
l-38 -5 18 49 c23 60 24 112 3 133 -19 20 -22 20 -59 -3 -21 -12 -41 -42 -65
-93 -19 -41 -44 -82 -55 -90 -20 -15 -20 -14 -20 108 l0 124 30 5 c17 2 51 7
78 10 87 11 126 74 63 103 -39 17 -128 21 -186 8z"/>
<path d="M6242 2994 c-31 -22 -28 -54 10 -86 l32 -26 -17 -119 c-21 -143 -21
-138 -1 -157 45 -46 105 6 123 107 14 82 14 192 0 220 -36 71 -97 96 -147 61z"/>
<path d="M6890 2990 c-26 -26 -25 -43 5 -76 30 -32 33 -83 10 -171 -9 -32 -18
-84 -22 -115 -6 -56 -5 -58 23 -68 61 -24 108 12 119 90 7 47 8 50 24 36 23
-21 234 -35 255 -16 17 14 14 73 -5 96 -22 27 -129 27 -224 -1 -19 -6 -20 -1
-21 67 0 79 -26 148 -63 168 -31 16 -79 12 -101 -10z"/>
<path d="M4943 2989 c-7 -7 -14 -33 -14 -58 -2 -79 -12 -105 -44 -120 -30 -15
-155 -44 -161 -38 -2 2 1 30 6 62 11 65 3 85 -35 85 -31 0 -41 -16 -55 -87
-13 -64 -18 -71 -37 -52 -6 6 -35 9 -67 7 -63 -3 -63 -4 -45 72 9 41 8 46 -12
62 -11 10 -37 18 -56 18 -78 0 -126 -102 -127 -270 0 -108 17 -150 61 -150 13
0 38 -7 55 -16 56 -29 166 7 245 79 13 11 27 42 33 73 6 30 14 54 17 54 3 0
14 -11 25 -25 27 -35 79 -47 134 -30 l44 13 0 -53 c0 -62 14 -78 59 -69 36 7
61 37 61 71 0 13 12 71 26 128 22 93 24 111 14 159 -6 29 -19 61 -29 70 -25
23 -83 31 -98 15z m-347 -326 c-4 -13 -26 -26 -59 -36 -79 -25 -87 -23 -87 18
l0 34 48 -5 c26 -3 58 -1 72 4 30 12 34 9 26 -15z"/>
<path d="M3595 2870 c-38 -60 -46 -86 -52 -176 -5 -72 -3 -87 18 -128 13 -26
32 -52 43 -58 24 -13 182 -4 251 14 56 15 98 63 93 108 l-3 25 -134 -2 -134
-2 6 62 c3 34 13 79 21 99 9 21 16 42 16 48 0 21 -41 50 -70 50 -24 0 -35 -8
-55 -40z"/>
<path d="M6554 2810 c-12 -5 -25 -14 -29 -20 -12 -19 -45 -170 -45 -204 0 -37
38 -86 66 -86 23 0 110 56 134 88 32 40 21 114 -24 151 -9 8 -16 23 -16 35 0
41 -36 56 -86 36z"/>
<path d="M3270 2791 c-231 -64 -330 -135 -258 -185 18 -13 25 -13 55 -1 32 14
33 13 33 -11 0 -13 -13 -70 -30 -126 -34 -113 -37 -159 -14 -182 21 -22 45
-20 85 7 43 29 70 110 72 225 2 80 1 85 -25 107 l-28 24 93 35 c50 20 110 41
131 48 48 16 65 40 47 62 -18 21 -78 20 -161 -3z"/>
<path d="M7530 2728 c-11 -18 -20 -37 -20 -41 0 -5 -14 -29 -31 -54 -18 -25
-37 -64 -44 -87 -10 -34 -17 -42 -41 -44 -78 -9 -87 -95 -13 -121 49 -17 123
-13 244 13 128 27 152 37 161 71 12 49 0 58 -69 52 -34 -4 -75 -10 -91 -13
l-29 -7 32 40 c26 33 32 49 33 90 0 114 -85 178 -132 101z"/>
<path d="M3317 2674 c-3 -4 -3 -35 0 -69 4 -45 1 -76 -11 -111 -19 -57 -21
-93 -3 -100 7 -2 34 5 59 16 57 25 78 70 78 165 0 79 -19 105 -78 105 -21 0
-41 -3 -45 -6z"/>
<path d="M5166 2548 c-22 -31 -20 -71 5 -94 19 -17 37 -19 185 -17 228 2 301
23 292 85 -6 41 -38 46 -203 36 -105 -7 -161 -7 -186 1 -54 16 -76 14 -93 -11z"/>
</g>
</svg>
