<?xml version="1.0" encoding="UTF-8" standalone="no" ?>
<!DOCTYPE svg PUBLIC "-//W3C//DTD SVG 1.1//EN" "http://www.w3.org/Graphics/SVG/1.1/DTD/svg11.dtd">
<svg xmlns="http://www.w3.org/2000/svg" xmlns:xlink="http://www.w3.org/1999/xlink" version="1.1" width="1080" height="1080" viewBox="0 0 1080 1080" xml:space="preserve">
<desc>Created with Fabric.js 5.2.4</desc>
<defs>
</defs>
<g transform="matrix(1 0 0 1 540 540)" id="0e978c23-8c41-4982-9ece-5d6add67bc70"  >
<rect style="stroke: none; stroke-width: 1; stroke-dasharray: none; stroke-linecap: butt; stroke-dashoffset: 0; stroke-linejoin: miter; stroke-miterlimit: 4; fill: rgb(255,255,255); fill-rule: nonzero; opacity: 1; visibility: hidden;" vector-effect="non-scaling-stroke"  x="-540" y="-540" rx="0" ry="0" width="1080" height="1080" />
</g>
<g transform="matrix(1 0 0 1 540 540)" id="60ed4bde-4a45-459a-a29b-4b68f3548f3b"  >
</g>
<g transform="matrix(0.13 0 0 -0.13 540.27 530.67)"  >
<path style="stroke: none; stroke-width: 1; stroke-dasharray: none; stroke-linecap: butt; stroke-dashoffset: 0; stroke-linejoin: miter; stroke-miterlimit: 4; fill: rgb(0,0,0); fill-rule: nonzero; opacity: 1;" vector-effect="non-scaling-stroke"  transform=" translate(-5404.67, -5394.73)" d="M 6660 7373 C 6652 7369 6103 7036 5440 6632 C 4777 6228 4210 5885 4180 5871 C 4125 5845 4124 5845 3800 5840 C 3524 5836 3469 5832 3438 5818 C 3376 5790 3335 5753 3304 5698 L 3275 5645 L 3272 5189 C 3269 4747 3270 4731 3290 4677 C 3315 4612 3389 4537 3448 4519 C 3468 4513 3548 4505 3625 4501 C 3735 4494 3776 4488 3815 4471 C 3887 4439 3958 4381 3988 4330 L 4015 4285 L 4020 3888 C 4025 3505 4026 3490 4046 3463 C 4057 3448 4086 3428 4108 3420 C 4145 3407 4155 3407 4192 3420 C 4214 3428 4243 3448 4254 3463 C 4274 3490 4275 3505 4280 3893 C 4285 4276 4286 4297 4306 4341 C 4332 4396 4383 4449 4436 4476 C 4474 4494 4508 4495 5385 4498 C 6052 4500 6306 4498 6335 4489 C 6402 4470 6466 4416 6497 4352 L 6525 4295 L 6530 3895 C 6535 3461 6535 3465 6593 3430 C 6650 3395 6729 3412 6765 3466 C 6784 3493 6785 3519 6790 3890 C 6795 4246 6797 4288 6813 4318 C 6843 4373 6904 4426 6977 4461 C 7040 4491 7055 4494 7185 4501 C 7262 4505 7341 4513 7361 4519 C 7408 4534 7485 4601 7513 4654 C 7535 4694 7535 4703 7538 5148 C 7540 5442 7537 5614 7530 5639 C 7512 5708 7459 5772 7395 5805 L 7336 5835 L 6961 5840 C 6604 5845 6583 5846 6540 5866 C 6515 5878 6481 5903 6464 5921 C 6446 5940 6356 6106 6260 6299 C 6098 6624 6088 6645 6094 6685 C 6098 6711 6110 6736 6126 6751 C 6140 6764 6295 6858 6472 6960 C 6674 7076 6801 7156 6814 7173 C 6840 7208 6841 7277 6816 7315 C 6783 7366 6711 7392 6660 7373 z M 5840 6504 C 5862 6485 5912 6396 6011 6199 C 6087 6045 6150 5913 6150 5903 C 6150 5894 6140 5876 6128 5863 L 6107 5840 L 5454 5840 C 4859 5840 4800 5841 4792 5856 C 4787 5865 4785 5880 4787 5889 C 4790 5898 4999 6045 5253 6217 C 5694 6515 5717 6529 5762 6530 C 5798 6530 5816 6524 5840 6504 z M 7214 5549 C 7264 5510 7270 5484 7270 5315 L 7270 5160 L 7181 5160 L 7092 5160 L 7080 5113 C 7064 5045 7056 5040 6985 5040 C 6917 5040 6909 5047 6895 5124 L 6888 5160 L 6790 5160 L 6693 5160 L 6686 5119 C 6674 5046 6667 5040 6595 5040 C 6534 5040 6530 5041 6515 5070 C 6507 5086 6500 5113 6500 5130 L 6500 5160 L 6401 5160 L 6302 5160 L 6290 5113 C 6274 5045 6266 5040 6195 5040 L 6132 5040 L 6116 5080 C 6107 5102 6100 5129 6100 5140 C 6100 5159 6093 5160 6001 5160 L 5902 5160 L 5895 5124 C 5881 5047 5873 5040 5805 5040 C 5734 5040 5726 5045 5710 5113 L 5698 5160 L 5599 5160 L 5500 5160 L 5500 5130 C 5500 5113 5493 5086 5485 5070 C 5470 5041 5466 5040 5405 5040 C 5332 5040 5325 5047 5312 5123 C 5308 5146 5301 5164 5297 5163 C 5293 5161 5250 5160 5201 5160 L 5112 5160 L 5105 5124 C 5091 5047 5083 5040 5015 5040 C 4944 5040 4936 5045 4920 5113 L 4908 5160 L 4809 5160 L 4710 5160 L 4710 5135 C 4710 5121 4703 5094 4696 5075 C 4681 5040 4681 5040 4615 5040 C 4549 5040 4549 5040 4534 5075 C 4527 5094 4520 5122 4520 5137 L 4520 5165 L 4421 5162 L 4322 5159 L 4310 5112 C 4294 5045 4286 5040 4215 5040 L 4152 5040 L 4136 5080 C 4127 5102 4120 5129 4120 5139 C 4120 5156 4111 5159 4048 5162 C 3937 5167 3920 5163 3920 5134 C 3920 5120 3913 5094 3906 5075 C 3891 5040 3891 5040 3826 5040 C 3764 5040 3760 5041 3745 5070 C 3737 5086 3730 5113 3730 5130 L 3730 5160 L 3635 5160 L 3540 5160 L 3540 5319 C 3540 5467 3541 5479 3563 5511 C 3575 5529 3597 5550 3610 5557 C 3630 5567 4010 5570 5411 5570 L 7187 5570 L 7214 5549 z" stroke-linecap="round" />
</g>
</svg>