<svg xmlns:mydata="http://www.w3.org/2000/svg" mydata:contrastcolor="ffffff" mydata:template="Contrast" mydata:presentation="2.5" mydata:layouttype="undefined" mydata:specialfontid="undefined" mydata:id1="841" mydata:id2="014" mydata:companyname="Universe" mydata:companytagline="" version="1.1" xmlns="http://www.w3.org/2000/svg" xmlns:xlink="http://www.w3.org/1999/xlink" viewBox="0 0 550 470"><g fill="#101820" fill-rule="nonzero" stroke="none" stroke-width="1" stroke-linecap="butt" stroke-linejoin="miter" stroke-miterlimit="10" stroke-dasharray="" stroke-dashoffset="0" font-family="none" font-weight="none" font-size="none" text-anchor="none" style="mix-blend-mode: normal"><g data-paper-data="{&quot;isGlobalGroup&quot;:true,&quot;bounds&quot;:{&quot;x&quot;:65,&quot;y&quot;:191.34095634095632,&quot;width&quot;:420,&quot;height&quot;:87.3180873180873}}"><g data-paper-data="{&quot;isPrimaryText&quot;:true}"><path d="M89.66736,278.65904c13.64345,0 24.66736,-11.13306 24.66736,-24.77651v-60.35863c0,-1.20062 -0.98233,-2.18295 -2.18295,-2.18295h-7.96778c-1.20062,0 -2.18295,0.98233 -2.18295,2.18295v60.35863c0,6.76715 -5.56653,12.33368 -12.33368,12.33368c-6.76715,0 -12.33368,-5.56653 -12.33368,-12.33368v-60.35863c0,-1.20062 -0.98233,-2.18295 -2.18295,-2.18295h-7.96778c-1.20062,0 -2.18295,0.98233 -2.18295,2.18295v60.35863c0,13.64345 11.02391,24.77651 24.66736,24.77651z" data-paper-data="{&quot;glyphName&quot;:&quot;u&quot;,&quot;glyphIndex&quot;:0,&quot;firstGlyphOfWord&quot;:true,&quot;word&quot;:1}"></path><path d="M126.34096,278.65904h8.07692c1.20062,0 2.18295,-0.98233 2.18295,-2.18295v-60.46778c0,-6.76715 5.56653,-12.33368 12.33368,-12.33368c6.76715,0 12.33368,5.56653 12.33368,12.33368v60.46778c0,1.20062 0.98233,2.18295 2.18295,2.18295h7.96778c1.20062,0 2.18295,-0.98233 2.18295,-2.18295v-60.46778c0,-13.64345 -11.02391,-24.66736 -24.66736,-24.66736c-4.14761,0 -7.96778,0.98233 -11.35135,2.72869c-0.2183,0.10915 -0.43659,0.10915 -0.65489,0c-0.2183,-0.10915 -0.32744,-0.32744 -0.32744,-0.54574c0,-1.20062 -0.98233,-2.18295 -2.18295,-2.18295h-8.07692c-1.20062,0 -2.18295,0.98233 -2.18295,2.18295v82.95218c0,1.20062 0.98233,2.18295 2.18295,2.18295z" data-paper-data="{&quot;glyphName&quot;:&quot;n&quot;,&quot;glyphIndex&quot;:1,&quot;word&quot;:1}"></path><path d="M186.69958,278.65904h7.96778c1.20062,0 2.18295,-0.98233 2.18295,-2.18295v-82.95218c0,-1.20062 -0.98233,-2.18295 -2.18295,-2.18295h-7.96778c-1.20062,0 -2.18295,0.98233 -2.18295,2.18295v82.95218c0,1.20062 0.98233,2.18295 2.18295,2.18295z" data-paper-data="{&quot;glyphName&quot;:&quot;i&quot;,&quot;glyphIndex&quot;:2,&quot;word&quot;:1}"></path><path d="M229.48545,278.65904h6.76715c1.20062,0 2.5104,-0.87318 2.72869,-1.96466l22.15696,-82.62474c0.2183,-0.65489 0,-1.41892 -0.32744,-1.96466c-0.43659,-0.54574 -1.09148,-0.76403 -1.74636,-0.76403h-8.29522c-0.98233,0 -1.85551,0.65489 -2.18295,1.52807l-15.06237,56.53846c-0.10915,0.32744 -0.32744,0.43659 -0.65489,0.43659c-0.32744,0 -0.54574,-0.10915 -0.65489,-0.43659l-15.17152,-56.53846c-0.2183,-0.87318 -1.09148,-1.52807 -2.0738,-1.52807h-8.29522c-0.65489,0 -1.30977,0.2183 -1.74636,0.76403c-0.43659,0.54574 -0.54574,1.30977 -0.32744,1.96466l22.15696,82.73389c0.32744,1.09148 1.52807,1.85551 2.72869,1.85551z" data-paper-data="{&quot;glyphName&quot;:&quot;v&quot;,&quot;glyphIndex&quot;:3,&quot;word&quot;:1}"></path><path d="M293.55509,278.65904c13.64345,0 24.77651,-11.13306 24.77651,-24.77651v-3.16528c0,-1.20062 -0.98233,-2.18295 -2.18295,-2.18295h-8.07692c-1.20062,0 -2.18295,0.98233 -2.18295,2.18295v3.16528c0,6.76715 -5.56653,12.33368 -12.33368,12.33368c-6.76715,0 -12.33368,-5.56653 -12.33368,-12.33368v-14.08004c0,-0.32744 0.32744,-0.65489 0.65489,-0.65489h34.27235c1.20062,0 2.18295,-0.87318 2.18295,-2.18295v-20.95634c0,-13.64345 -11.13306,-24.66736 -24.77651,-24.66736c-13.5343,0 -24.66736,11.02391 -24.66736,24.66736v37.87422c0,13.64345 11.13306,24.77651 24.66736,24.77651zM281.8763,226.81393c-0.32744,0 -0.65489,-0.32744 -0.65489,-0.65489v-10.15073c0,-6.76715 5.56653,-12.33368 12.33368,-12.33368c6.76715,0 12.33368,5.56653 12.33368,12.33368v10.15073c0,0.32744 -0.2183,0.65489 -0.65489,0.65489z" data-paper-data="{&quot;glyphName&quot;:&quot;e&quot;,&quot;glyphIndex&quot;:4,&quot;word&quot;:1}"></path><path d="M329.24636,278.65904h7.96778c1.20062,0 2.18295,-0.98233 2.18295,-2.18295v-28.16008c0,-0.32744 0.32744,-0.65489 0.65489,-0.65489h8.29522c6.76715,0 12.33368,5.56653 12.33368,12.33368v16.48129c0,1.20062 0.98233,2.18295 2.18295,2.18295h7.96778c1.20062,0 2.18295,-0.98233 2.18295,-2.18295v-16.48129c0,-7.09459 -2.94699,-13.5343 -7.85863,-18.00936c-0.10915,-0.10915 -0.2183,-0.32744 -0.2183,-0.43659c0,-0.2183 0.10915,-0.43659 0.2183,-0.54574c4.91164,-4.47505 7.85863,-10.91476 7.85863,-18.00936v-6.98545c0,-13.64345 -11.02391,-24.66736 -24.66736,-24.66736h-19.10083c-1.20062,0 -2.18295,0.98233 -2.18295,2.18295v82.95218c0,1.20062 0.98233,2.18295 2.18295,2.18295zM340.05198,235.32744c-0.32744,0 -0.65489,-0.32744 -0.65489,-0.65489v-30.34304c0,-0.32744 0.32744,-0.65489 0.65489,-0.65489h8.29522c6.76715,0 12.33368,5.56653 12.33368,12.33368v6.98545c0,6.76715 -5.56653,12.33368 -12.33368,12.33368z" data-paper-data="{&quot;glyphName&quot;:&quot;r&quot;,&quot;glyphIndex&quot;:5,&quot;word&quot;:1}"></path><path d="M403.24844,278.65904c13.64345,0 24.66736,-11.13306 24.66736,-24.77651v-4.91164c0,-4.14761 -1.63721,-9.05925 -7.85863,-12.00624l-25.97713,-12.55198c-2.18295,-1.09148 -3.16528,-2.83784 -3.16528,-4.91164v-5.02079c0,-5.89397 5.56653,-10.80561 12.33368,-10.80561c6.76715,0 12.33368,5.56653 12.33368,12.33368v2.5104c0,1.20062 0.98233,2.18295 2.18295,2.18295h7.96778c1.20062,0 2.18295,-0.98233 2.18295,-2.18295v-2.5104c0,-13.64345 -11.02391,-24.66736 -24.66736,-24.66736c-13.64345,0 -24.77651,11.02391 -24.77651,24.66736v4.91164c0,4.14761 1.74636,9.05925 7.96778,12.11538l25.86798,12.44283c2.2921,1.09148 3.27443,2.83784 3.27443,5.02079v4.91164c0,5.89397 -5.56653,10.80561 -12.33368,10.80561c-6.76715,0 -12.33368,-5.56653 -12.33368,-12.33368v-2.5104c0,-1.20062 -0.98233,-2.18295 -2.18295,-2.18295h-8.07692c-1.20062,0 -2.18295,0.98233 -2.18295,2.18295v2.5104c0,13.64345 11.13306,24.77651 24.77651,24.77651z" data-paper-data="{&quot;glyphName&quot;:&quot;s&quot;,&quot;glyphIndex&quot;:6,&quot;word&quot;:1}"></path><path d="M460.22349,278.65904c13.64345,0 24.77651,-11.13306 24.77651,-24.77651v-3.16528c0,-1.20062 -0.98233,-2.18295 -2.18295,-2.18295h-8.07692c-1.20062,0 -2.18295,0.98233 -2.18295,2.18295v3.16528c0,6.76715 -5.56653,12.33368 -12.33368,12.33368c-6.76715,0 -12.33368,-5.56653 -12.33368,-12.33368v-14.08004c0,-0.32744 0.32744,-0.65489 0.65489,-0.65489h34.27235c1.20062,0 2.18295,-0.87318 2.18295,-2.18295v-20.95634c0,-13.64345 -11.13306,-24.66736 -24.77651,-24.66736c-13.5343,0 -24.66736,11.02391 -24.66736,24.66736v37.87422c0,13.64345 11.13306,24.77651 24.66736,24.77651zM448.5447,226.81393c-0.32744,0 -0.65489,-0.32744 -0.65489,-0.65489v-10.15073c0,-6.76715 5.56653,-12.33368 12.33368,-12.33368c6.76715,0 12.33368,5.56653 12.33368,12.33368v10.15073c0,0.32744 -0.2183,0.65489 -0.65489,0.65489z" data-paper-data="{&quot;glyphName&quot;:&quot;e&quot;,&quot;glyphIndex&quot;:7,&quot;lastGlyphOfWord&quot;:true,&quot;word&quot;:1}"></path></g></g></g></svg>