<svg viewBox="0 0 24 24" fill="none" xmlns="http://www.w3.org/2000/svg">
<path d="M18 2H6C4.89543 2 4 2.89543 4 4V20C4 21.1046 4.89543 22 6 22H18C19.1046 22 20 21.1046 20 20V4C20 2.89543 19.1046 2 18 2Z" fill="#E7ECEF"/>
<path d="M16.5 7H7.5C7.22386 7 7 7.22386 7 7.5V8.5C7 8.77614 7.22386 9 7.5 9H16.5C16.7761 9 17 8.77614 17 8.5V7.5C17 7.22386 16.7761 7 16.5 7Z" fill="#737A83"/>
<path d="M16.5 11H7.5C7.22386 11 7 11.2239 7 11.5V12.5C7 12.7761 7.22386 13 7.5 13H16.5C16.7761 13 17 12.7761 17 12.5V11.5C17 11.2239 16.7761 11 16.5 11Z" fill="#737A83"/>
<path d="M16.5 15H7.5C7.22386 15 7 15.2239 7 15.5V16.5C7 16.7761 7.22386 17 7.5 17H16.5C16.7761 17 17 16.7761 17 16.5V15.5C17 15.2239 16.7761 15 16.5 15Z" fill="#737A83"/>
</svg>
