<svg width="24" height="24" viewBox="0 0 24 24" fill="none" xmlns="http://www.w3.org/2000/svg">
<path d="M4 4H20C21.1046 4 22 4.89543 22 6V16C22 17.1046 21.1046 18 20 18H12L7 23V18H4C2.89543 18 2 17.1046 2 16V6C2 4.89543 2.89543 4 4 4Z" fill="#7AD7B5"/>
<path d="M8.5 9.75H7C6.72386 9.75 6.5 9.97386 6.5 10.25V11.75C6.5 12.0261 6.72386 12.25 7 12.25H8.5C8.77614 12.25 9 12.0261 9 11.75V10.25C9 9.97386 8.77614 9.75 8.5 9.75Z" fill="white"/>
<path d="M12.75 9.75H11.25C10.9739 9.75 10.75 9.97386 10.75 10.25V11.75C10.75 12.0261 10.9739 12.25 11.25 12.25H12.75C13.0261 12.25 13.25 12.0261 13.25 11.75V10.25C13.25 9.97386 13.0261 9.75 12.75 9.75Z" fill="white"/>
<path d="M17 9.75H15.5C15.2239 9.75 15 9.97386 15 10.25V11.75C15 12.0261 15.2239 12.25 15.5 12.25H17C17.2761 12.25 17.5 12.0261 17.5 11.75V10.25C17.5 9.97386 17.2761 9.75 17 9.75Z" fill="white"/>
</svg>
