<svg width="24" height="24" viewBox="0 0 24 24" fill="none" xmlns="http://www.w3.org/2000/svg">
<path d="M8.9998 18H14.9998L16.7198 22.3199C16.7514 22.3951 16.7638 22.477 16.7558 22.5581C16.7478 22.6392 16.7197 22.7171 16.674 22.7846C16.6283 22.8521 16.5665 22.9072 16.4942 22.9448C16.4219 22.9824 16.3413 23.0014 16.2598 23H7.72981C7.6483 23.0014 7.56773 22.9824 7.4954 22.9448C7.42307 22.9072 7.36127 22.8521 7.31559 22.7846C7.26991 22.7171 7.2418 22.6392 7.23381 22.5581C7.22581 22.477 7.23819 22.3951 7.26982 22.3199L8.9998 18Z" fill="#A0A6AB"/>
<path d="M12 19C16.9706 19 21 14.9706 21 10C21 5.02944 16.9706 1 12 1C7.02944 1 3 5.02944 3 10C3 14.9706 7.02944 19 12 19Z" fill="#E7ECEF"/>
<path d="M12 12.5C13.3807 12.5 14.5 11.3807 14.5 10C14.5 8.61929 13.3807 7.5 12 7.5C10.6193 7.5 9.5 8.61929 9.5 10C9.5 11.3807 10.6193 12.5 12 12.5Z" fill="#737A83"/>
</svg>
