<svg width="24" height="24" viewBox="0 0 24 24" fill="none" xmlns="http://www.w3.org/2000/svg">
<path d="M22 11C22 5.47715 17.5228 1 12 1C6.47715 1 2 5.47715 2 11C2 16.5228 6.47715 21 12 21C17.5228 21 22 16.5228 22 11Z" fill="#88BFFF"/>
<path d="M5 18.1406L2 21.0006H12V19.0006L5 18.1406Z" fill="#88BFFF"/>
<path d="M14.5 12H7.5C7.22386 12 7 12.2239 7 12.5V13.5C7 13.7761 7.22386 14 7.5 14H14.5C14.7761 14 15 13.7761 15 13.5V12.5C15 12.2239 14.7761 12 14.5 12Z" fill="white"/>
<path d="M16.5 8H7.5C7.22386 8 7 8.22386 7 8.5V9.5C7 9.77614 7.22386 10 7.5 10H16.5C16.7761 10 17 9.77614 17 9.5V8.5C17 8.22386 16.7761 8 16.5 8Z" fill="white"/>
</svg>
