<svg width="24" height="24" viewBox="0 0 24 24" fill="none" xmlns="http://www.w3.org/2000/svg">
<path d="M12 17C16.4183 17 20 13.4183 20 9C20 4.58172 16.4183 1 12 1C7.58172 1 4 4.58172 4 9C4 13.4183 7.58172 17 12 17Z" fill="#FFE457"/>
<path d="M15 16H9V19H15V16Z" fill="#FFE457"/>
<path d="M8.97949 19V22C8.97949 22.2652 9.08486 22.5196 9.2724 22.7071C9.45994 22.8946 9.71428 23 9.97949 23H13.9795C14.2447 23 14.499 22.8946 14.6866 22.7071C14.8741 22.5196 14.9795 22.2652 14.9795 22V19H8.97949Z" fill="#A0A6AB"/>
</svg>
