<svg viewBox="0 0 24 24" fill="none" xmlns="http://www.w3.org/2000/svg">
<path d="M18 2H6C4.89543 2 4 2.89543 4 4V20C4 21.1046 4.89543 22 6 22H18C19.1046 22 20 21.1046 20 20V4C20 2.89543 19.1046 2 18 2Z" fill="#E7ECEF"/>
<path d="M10.49 8H6.5C6.22386 8 6 8.22386 6 8.5V9.5C6 9.77614 6.22386 10 6.5 10H10.49C10.7661 10 10.99 9.77614 10.99 9.5V8.5C10.99 8.22386 10.7661 8 10.49 8Z" fill="#C7CED5"/>
<path fill-rule="evenodd" clip-rule="evenodd" d="M15.0001 8.58579L17.293 6.29289L18.7072 7.70711L15.0001 11.4142L12.293 8.70711L13.7072 7.29289L15.0001 8.58579Z" fill="#48AFBA"/>
<path fill-rule="evenodd" clip-rule="evenodd" d="M15.0001 14.5858L17.293 12.2929L18.7072 13.7071L15.0001 17.4142L12.293 14.7071L13.7072 13.2929L15.0001 14.5858Z" fill="#48AFBA"/>
<path d="M10.4998 14H6.50977C6.23362 14 6.00977 14.2239 6.00977 14.5V15.53C6.00977 15.8061 6.23362 16.03 6.50977 16.03H10.4998C10.7759 16.03 10.9998 15.8061 10.9998 15.53V14.5C10.9998 14.2239 10.7759 14 10.4998 14Z" fill="#C7CED5"/>
</svg>
