<svg width="24" height="24" viewBox="0 0 24 24" fill="none" xmlns="http://www.w3.org/2000/svg">
<path d="M4 6H8V14H4C3.46957 14 2.96089 13.7893 2.58582 13.4142C2.21074 13.0391 2 12.5304 2 12V8C2 7.46957 2.21074 6.96086 2.58582 6.58578C2.96089 6.21071 3.46957 6 4 6Z" fill="#5096FF"/>
<path d="M6.25 14H3.75V21H6.25V14Z" fill="#5096FF"/>
<path d="M19 7C19.7956 7 20.5587 7.31607 21.1213 7.87868C21.6839 8.44129 22 9.20435 22 10C22 10.7956 21.6839 11.5587 21.1213 12.1213C20.5587 12.6839 19.7956 13 19 13V7Z" fill="#5096FF"/>
<path d="M18.29 18.6893L8 14.0093V6.00926L18.29 1.37925C18.3659 1.34412 18.4494 1.3286 18.5328 1.33409C18.6163 1.33958 18.697 1.36591 18.7677 1.41069C18.8383 1.45546 18.8966 1.51725 18.9372 1.59037C18.9778 1.6635 18.9994 1.74563 19 1.82927V18.2793C18.9931 18.3595 18.9669 18.4368 18.9237 18.5047C18.8805 18.5726 18.8216 18.6291 18.7519 18.6694C18.6822 18.7096 18.6038 18.7324 18.5234 18.7359C18.443 18.7393 18.3629 18.7234 18.29 18.6893Z" fill="#CBDFFF"/>
</svg>
