<svg width="24" height="24" viewBox="0 0 24 24" fill="none" xmlns="http://www.w3.org/2000/svg">
<g clip-path="url(#clip0_1_928)">
<path d="M5 8H8V21H5C4.46957 21 3.96086 20.7893 3.58579 20.4142C3.21071 20.0391 3 19.5304 3 19V10C3 9.46957 3.21071 8.96086 3.58579 8.58579C3.96086 8.21071 4.46957 8 5 8Z" fill="#5096FF"/>
<path d="M16.61 21H8V8H18.23C18.6805 8.00063 19.1252 8.10274 19.5308 8.29874C19.9365 8.49474 20.2928 8.77959 20.5734 9.13216C20.8539 9.48473 21.0514 9.89595 21.1512 10.3353C21.251 10.7746 21.2506 11.2308 21.15 11.67L19.54 18.67C19.3881 19.333 19.0154 19.9247 18.483 20.3481C17.9506 20.7714 17.2902 21.0013 16.61 21Z" fill="#DBECFF"/>
<path d="M14.11 1H14C13.681 0.999878 13.3666 1.07606 13.0831 1.22219C12.7995 1.36831 12.555 1.58014 12.37 1.84L8 8H13L15.74 4.16C15.953 3.86081 16.0795 3.50873 16.1057 3.14238C16.1318 2.77603 16.0566 2.40956 15.8882 2.08314C15.7199 1.75673 15.4649 1.48298 15.1512 1.29192C14.8375 1.10086 14.4773 0.999859 14.11 1Z" fill="#DBECFF"/>
<path d="M14 4H12V8H14V4Z" fill="#DBECFF"/>
</g>
<defs>
<clipPath id="clip0_1_928">
<rect width="24" height="24" fill="white"/>
</clipPath>
</defs>
</svg>
