<svg width="24" height="24" viewBox="0 0 24 24" fill="none" xmlns="http://www.w3.org/2000/svg">
<path fill-rule="evenodd" clip-rule="evenodd" d="M12.0002 3.25977C10.4077 3.25976 8.8803 3.89182 7.75345 5.01712C6.62678 6.14223 5.99265 7.66844 5.99023 9.26066V13.0098H3.49023L3.49024 9.25804C3.49334 7.00308 4.3913 4.84154 5.9869 3.24814C7.5825 1.65474 9.74527 0.759763 12.0002 0.759766C14.2552 0.759763 16.418 1.65474 18.0136 3.24814C19.6092 4.84154 20.5071 7.00308 20.5102 9.25804V9.25977V13.0098H18.0102L18.0102 9.26149C18.0102 9.26127 18.0102 9.26171 18.0102 9.26149C18.0079 7.66921 17.3737 6.14227 16.247 5.01712C15.1202 3.89182 13.5928 3.25976 12.0002 3.25977Z" fill="#E7ECEF"/>
<path fill-rule="evenodd" clip-rule="evenodd" d="M19.7809 15.0239C20.3199 15.4552 20.4073 16.2418 19.9761 16.7809L15.6008 22.25H11C10.3096 22.25 9.75 21.6903 9.75 21C9.75 20.3096 10.3096 19.75 11 19.75H14.3992L18.0239 15.2191C18.4552 14.68 19.2418 14.5926 19.7809 15.0239Z" fill="#E7ECEF"/>
<path d="M4 9H5C5.26522 9 5.51956 9.10536 5.70709 9.29289C5.89463 9.48043 6 9.73478 6 10V16C6 16.2652 5.89463 16.5196 5.70709 16.7071C5.51956 16.8946 5.26522 17 5 17H4C3.20435 17 2.44127 16.6839 1.87866 16.1213C1.31605 15.5587 1 14.7956 1 14V12C1 11.2044 1.31605 10.4413 1.87866 9.87868C2.44127 9.31607 3.20435 9 4 9Z" fill="#737A83"/>
<path d="M19 9H20C20.7956 9 21.5587 9.31607 22.1213 9.87868C22.6839 10.4413 23 11.2044 23 12V14C23 14.7956 22.6839 15.5587 22.1213 16.1213C21.5587 16.6839 20.7956 17 20 17H19C18.7348 17 18.4804 16.8946 18.2929 16.7071C18.1054 16.5196 18 16.2652 18 16V10C18 9.73478 18.1054 9.48043 18.2929 9.29289C18.4804 9.10536 18.7348 9 19 9Z" fill="#737A83"/>
</svg>
