<svg width="24" height="24" viewBox="0 0 24 24" fill="none" xmlns="http://www.w3.org/2000/svg">
<path d="M3 8V20.0714C3 20.3177 3.10537 20.5539 3.29291 20.728C3.48044 20.9022 3.73478 21 4 21H20C20.2652 21 20.5196 20.9022 20.7071 20.728C20.8947 20.5539 21 20.3177 21 20.0714V8H3Z" fill="#EFE8E1"/>
<path d="M22.0097 4H2.00977V8H22.0097V4Z" fill="#9C9188"/>
<path d="M14.0098 9.75H10.0098C9.45748 9.75 9.00977 10.1977 9.00977 10.75V11.25C9.00977 11.8023 9.45748 12.25 10.0098 12.25H14.0098C14.5621 12.25 15.0098 11.8023 15.0098 11.25V10.75C15.0098 10.1977 14.5621 9.75 14.0098 9.75Z" fill="#707070"/>
</svg>
