<svg width="current" height="current" viewBox="0 0 24 24" fill="none" xmlns="http://www.w3.org/2000/svg">
<path d="M15.44 5.07031L5.54004 14.9703L9.08004 18.5003L18.98 8.60031L15.44 5.07031Z" fill="#FFC738"/>
<path d="M4.74984 15.7607L4.08984 17.7507L6.27984 19.9407L8.28984 19.2907L9.07984 18.5007L5.53984 14.9707L4.74984 15.7607Z" fill="#F0F0F0"/>
<path d="M3 21L6.28 19.94L4.09 17.75L3 21Z" fill="#707070"/>
<path d="M20.3904 4.36069L19.6804 3.66071C19.3057 3.2882 18.7988 3.0791 18.2704 3.0791C17.7421 3.0791 17.2351 3.2882 16.8604 3.66071L15.4404 5.07068L18.9805 8.61069L20.3904 7.1907C20.5764 7.00496 20.7239 6.78436 20.8246 6.54156C20.9252 6.29877 20.977 6.03853 20.977 5.7757C20.977 5.51286 20.9252 5.25259 20.8246 5.0098C20.7239 4.767 20.5764 4.54643 20.3904 4.36069Z" fill="#F4868F"/>
</svg>
