<svg width="current" height="current" viewBox="0 0 24 24" fill="none" xmlns="http://www.w3.org/2000/svg">
<path d="M22 12C22 6.47715 17.5228 2 12 2C6.47715 2 2 6.47715 2 12C2 17.5228 6.47715 22 12 22C17.5228 22 22 17.5228 22 12Z" fill="#737A83"/>
<path fill-rule="evenodd" clip-rule="evenodd" d="M11.5212 8.33717C10.6934 8.56552 10.25 9.11472 10.25 9.73306H7.75C7.75 7.65796 9.30198 6.35599 10.8564 5.92718C12.3917 5.50366 14.3687 5.79882 15.5344 7.35835C16.0144 7.98384 16.2678 8.75342 16.249 9.54272C16.2302 10.3359 15.9378 11.0962 15.4243 11.6999L15.3976 11.7312L15.369 11.7607C14.8881 12.2561 14.2417 12.5701 13.8507 12.76C13.7836 12.7926 13.724 12.8216 13.674 12.8472C13.2648 13.0568 13.1419 13.1743 13.0807 13.2883C13.0805 13.2896 13.0804 13.2909 13.0804 13.292V14H10.5804V13.2819C10.5819 12.9423 10.6517 12.6071 10.7851 12.2955L10.7926 12.2779L10.8007 12.2605C11.2343 11.328 12.0171 10.887 12.5342 10.6221C12.6635 10.5558 12.776 10.4995 12.8748 10.4501C13.223 10.2757 13.4005 10.1868 13.5457 10.0486C13.6747 9.88365 13.7449 9.68559 13.7497 9.48327C13.7549 9.26792 13.6857 9.05442 13.5491 8.87765L13.5418 8.86828L13.5348 8.85877C13.1523 8.34401 12.3651 8.10439 11.5212 8.33717Z" fill="white"/>
<path d="M12 18.3604C12.8284 18.3604 13.5 17.6888 13.5 16.8604C13.5 16.0319 12.8284 15.3604 12 15.3604C11.1716 15.3604 10.5 16.0319 10.5 16.8604C10.5 17.6888 11.1716 18.3604 12 18.3604Z" fill="white"/>
</svg>
